<svg xmlns="http://www.w3.org/2000/svg" version="1.1" xmlns:xlink="http://www.w3.org/1999/xlink" width="512" height="512" x="0" y="0" viewBox="0 0 24 24" style="enable-background:new 0 0 512 512" xml:space="preserve" class=""><g><path d="m22.576 12.52-8.727-8.67a3.892 3.892 0 0 0-3.221-1.09l-5.803.651L1.707.293A.999.999 0 1 0 .293 1.707l3.118 3.118-.696 6.088a3.865 3.865 0 0 0 1.136 3.062l8.713 8.645a4.789 4.789 0 0 0 3.4 1.404h.02a4.787 4.787 0 0 0 3.408-1.431l3.21-3.242a4.848 4.848 0 0 0-.025-6.832Zm-1.396 5.426-3.21 3.242a2.8 2.8 0 0 1-1.994.837h-.011a2.807 2.807 0 0 1-1.992-.823l-8.714-8.647a1.861 1.861 0 0 1-.554-1.449l.512-4.474 1.857 1.857A1.967 1.967 0 0 0 7 9.001a2 2 0 1 0 2-2c-.178 0-.347.031-.512.074L6.634 5.221l4.226-.474.021-.003a1.884 1.884 0 0 1 1.559.525l8.726 8.668a2.846 2.846 0 0 1 .015 4.009Zm-3.974-5.151a.999.999 0 0 0-1.414 0l-3 3a.999.999 0 0 0 0 1.414l2.5 2.5a.997.997 0 0 0 1.414 0l3-3a.999.999 0 0 0 0-1.414l-2.5-2.5Zm-1.207 4.793-1.086-1.086 1.586-1.586 1.086 1.086-1.586 1.586Z" fill="#3e6bff" opacity="1" data-original="#000000" class=""></path></g></svg>