<svg xmlns="http://www.w3.org/2000/svg" version="1.1" xmlns:xlink="http://www.w3.org/1999/xlink" width="512" height="512" x="0" y="0" viewBox="0 0 24 24" style="enable-background:new 0 0 512 512" xml:space="preserve" class=""><g><path d="M16 2h-.171A3.006 3.006 0 0 0 13 0h-2a3.006 3.006 0 0 0-2.829 2H8C5.243 2 3 4.243 3 7v12c0 2.757 2.243 5 5 5h8c2.757 0 5-2.243 5-5V7c0-2.757-2.243-5-5-5Zm3 17c0 1.654-1.346 3-3 3H8c-1.654 0-3-1.346-3-3V7c0-1.654 1.346-3 3-3h1c.553 0 1-.448 1-1s.448-1 1-1h2c.552 0 1 .449 1 1s.447 1 1 1h1c1.654 0 3 1.346 3 3v12ZM12.207 8.037a.999.999 0 0 1 0 1.414l-1.843 1.843a2.401 2.401 0 0 1-3.359.046l-.649-.615a1 1 0 0 1 1.375-1.453l.648.614a.408.408 0 0 0 .571-.008l1.843-1.843a.999.999 0 0 1 1.414 0Zm0 6a.999.999 0 0 1 0 1.414l-1.843 1.843a2.401 2.401 0 0 1-3.359.046l-.649-.615a1 1 0 0 1 1.375-1.453l.648.614c.164.154.415.15.571-.008l1.843-1.843a.999.999 0 0 1 1.414 0ZM17 11a1 1 0 0 1-1 1h-2a1 1 0 1 1 0-2h2a1 1 0 0 1 1 1Zm0 6a1 1 0 0 1-1 1h-2a1 1 0 1 1 0-2h2a1 1 0 0 1 1 1Z" fill="#3e6bff" opacity="1" data-original="#000000" class=""></path></g></svg>