<svg xmlns="http://www.w3.org/2000/svg" xmlns:xlink="http://www.w3.org/1999/xlink" width="500" zoomAndPan="magnify" viewBox="0 0 375 374.999991" height="500" preserveAspectRatio="xMidYMid meet" version="1.0"><defs><g/><clipPath id="3a8961e30f"><path d="M 56.488281 151.464844 L 318.167969 151.464844 L 318.167969 223.464844 L 56.488281 223.464844 Z M 56.488281 151.464844 " clip-rule="nonzero"/></clipPath><clipPath id="bd651c0b52"><path d="M 63.558594 158.238281 L 187.332031 158.238281 L 187.332031 216.761719 L 63.558594 216.761719 Z M 63.558594 158.238281 " clip-rule="nonzero"/></clipPath></defs><g clip-path="url(#3a8961e30f)"><path stroke-linecap="butt" transform="matrix(0.75, 0, 0, 0.75, 56.489269, 151.465449)" fill="none" stroke-linejoin="miter" d="M -0.00131672 -0.000807338 L 348.904956 -0.000807338 L 348.904956 96.092949 L -0.00131672 96.092949 Z M -0.00131672 -0.000807338 " stroke="#000000" stroke-width="6" stroke-opacity="1" stroke-miterlimit="4"/></g><g clip-path="url(#bd651c0b52)"><path fill="#000000" d="M 63.558594 158.238281 L 187.238281 158.238281 L 187.238281 216.761719 L 63.558594 216.761719 Z M 63.558594 158.238281 " fill-opacity="1" fill-rule="nonzero"/></g><g fill="#ffffff" fill-opacity="1"><g transform="translate(70.702631, 194.568254)"><g><path d="M 2.65625 0 L 2.65625 -18.25 L 9.734375 -18.25 C 11.484375 -18.25 12.882812 -17.8125 13.9375 -16.9375 C 14.988281 -16.0625 15.515625 -14.882812 15.515625 -13.40625 C 15.515625 -12.519531 15.304688 -11.738281 14.890625 -11.0625 C 14.472656 -10.382812 13.890625 -9.851562 13.140625 -9.46875 C 14.078125 -9.082031 14.789062 -8.515625 15.28125 -7.765625 C 15.78125 -7.023438 16.03125 -6.140625 16.03125 -5.109375 C 16.03125 -3.523438 15.492188 -2.273438 14.421875 -1.359375 C 13.359375 -0.453125 11.90625 0 10.0625 0 Z M 4.953125 -2.140625 L 10.015625 -2.140625 C 11.191406 -2.140625 12.097656 -2.40625 12.734375 -2.9375 C 13.367188 -3.476562 13.6875 -4.238281 13.6875 -5.21875 C 13.6875 -6.1875 13.363281 -6.9375 12.71875 -7.46875 C 12.082031 -8 11.171875 -8.265625 9.984375 -8.265625 L 4.953125 -8.265625 Z M 4.953125 -10.359375 L 9.671875 -10.359375 C 10.804688 -10.359375 11.671875 -10.609375 12.265625 -11.109375 C 12.867188 -11.609375 13.171875 -12.3125 13.171875 -13.21875 C 13.171875 -14.144531 12.863281 -14.859375 12.25 -15.359375 C 11.644531 -15.859375 10.785156 -16.109375 9.671875 -16.109375 L 4.953125 -16.109375 Z M 4.953125 -10.359375 "/></g></g></g><g fill="#ffffff" fill-opacity="1"><g transform="translate(90.181285, 194.568254)"><g><path d="M 2.65625 0 L 2.65625 -18.25 L 13.75 -18.25 L 13.75 -16.109375 L 4.953125 -16.109375 L 4.953125 -10.359375 L 13.09375 -10.359375 L 13.09375 -8.234375 L 4.953125 -8.234375 L 4.953125 -2.140625 L 14.03125 -2.140625 L 14.03125 0 Z M 2.65625 0 "/></g></g></g><g fill="#ffffff" fill-opacity="1"><g transform="translate(107.886883, 194.568254)"><g><path d="M 7.0625 0 L 7.0625 -16.0625 L 0.890625 -16.0625 L 0.890625 -18.25 L 15.515625 -18.25 L 15.515625 -16.0625 L 9.359375 -16.0625 L 9.359375 0 Z M 7.0625 0 "/></g></g></g><g fill="#ffffff" fill-opacity="1"><g transform="translate(126.296486, 194.568254)"><g><path d="M 7.0625 0 L 7.0625 -16.0625 L 0.890625 -16.0625 L 0.890625 -18.25 L 15.515625 -18.25 L 15.515625 -16.0625 L 9.359375 -16.0625 L 9.359375 0 Z M 7.0625 0 "/></g></g></g><g fill="#ffffff" fill-opacity="1"><g transform="translate(144.706092, 194.568254)"><g><path d="M 2.65625 0 L 2.65625 -18.25 L 13.75 -18.25 L 13.75 -16.109375 L 4.953125 -16.109375 L 4.953125 -10.359375 L 13.09375 -10.359375 L 13.09375 -8.234375 L 4.953125 -8.234375 L 4.953125 -2.140625 L 14.03125 -2.140625 L 14.03125 0 Z M 2.65625 0 "/></g></g></g><g fill="#ffffff" fill-opacity="1"><g transform="translate(162.411692, 194.568254)"><g><path d="M 2.65625 0 L 2.65625 -18.25 L 9.625 -18.25 C 10.894531 -18.25 12 -18.007812 12.9375 -17.53125 C 13.875 -17.0625 14.601562 -16.390625 15.125 -15.515625 C 15.644531 -14.648438 15.90625 -13.609375 15.90625 -12.390625 C 15.90625 -10.910156 15.519531 -9.6875 14.75 -8.71875 C 13.988281 -7.757812 12.941406 -7.113281 11.609375 -6.78125 L 16.1875 0 L 13.4375 0 L 8.96875 -6.546875 L 4.953125 -6.546875 L 4.953125 0 Z M 4.953125 -8.734375 L 9.359375 -8.734375 C 10.703125 -8.734375 11.738281 -9.050781 12.46875 -9.6875 C 13.195312 -10.320312 13.5625 -11.222656 13.5625 -12.390625 C 13.5625 -13.554688 13.195312 -14.457031 12.46875 -15.09375 C 11.738281 -15.738281 10.703125 -16.0625 9.359375 -16.0625 L 4.953125 -16.0625 Z M 4.953125 -8.734375 "/></g></g></g><g fill="#000000" fill-opacity="1"><g transform="translate(191.493082, 194.568254)"><g><path d="M 6 0 L 0.125 -18.25 L 5.71875 -18.25 L 6.984375 -14.1875 L 8.84375 -8.5 L 10.6875 -14.1875 L 12.046875 -18.25 L 17.0625 -18.25 L 20.28125 -8.34375 L 22.171875 -14.1875 L 23.4375 -18.25 L 28.96875 -18.25 L 23.109375 0 L 17.859375 0 L 14.546875 -10.140625 L 11.234375 0 Z M 6 0 "/></g></g></g><g fill="#000000" fill-opacity="1"><g transform="translate(220.591983, 194.568254)"><g><path d="M 1.9375 0 L 1.9375 -18.25 L 14.453125 -18.25 L 14.453125 -14 L 7.140625 -14 L 7.140625 -11.34375 L 13.75 -11.34375 L 13.75 -7.125 L 7.140625 -7.125 L 7.140625 -4.296875 L 14.734375 -4.296875 L 14.734375 0 Z M 1.9375 0 "/></g></g></g><g fill="#000000" fill-opacity="1"><g transform="translate(236.497301, 194.568254)"><g><path d="M 1.9375 0 L 1.9375 -18.25 L 10.828125 -18.25 C 12.734375 -18.25 14.242188 -17.804688 15.359375 -16.921875 C 16.472656 -16.035156 17.03125 -14.847656 17.03125 -13.359375 C 17.03125 -12.484375 16.835938 -11.691406 16.453125 -10.984375 C 16.066406 -10.285156 15.519531 -9.738281 14.8125 -9.34375 C 15.675781 -8.957031 16.351562 -8.394531 16.84375 -7.65625 C 17.332031 -6.914062 17.578125 -6.054688 17.578125 -5.078125 C 17.578125 -4.085938 17.3125 -3.207031 16.78125 -2.4375 C 16.25 -1.675781 15.507812 -1.078125 14.5625 -0.640625 C 13.613281 -0.210938 12.523438 0 11.296875 0 Z M 7.09375 -3.90625 L 10.28125 -3.90625 C 10.90625 -3.90625 11.382812 -4.054688 11.71875 -4.359375 C 12.0625 -4.671875 12.234375 -5.097656 12.234375 -5.640625 C 12.234375 -6.171875 12.0625 -6.582031 11.71875 -6.875 C 11.382812 -7.175781 10.90625 -7.328125 10.28125 -7.328125 L 7.09375 -7.328125 Z M 7.09375 -11.078125 L 9.828125 -11.078125 C 11.097656 -11.078125 11.734375 -11.625 11.734375 -12.71875 C 11.734375 -13.820312 11.097656 -14.375 9.828125 -14.375 L 7.09375 -14.375 Z M 7.09375 -11.078125 "/></g></g></g><g fill="#000000" fill-opacity="1"><g transform="translate(254.827531, 194.568254)"><g><path d="M 8.46875 0.390625 C 6.101562 0.390625 4.25 -0.164062 2.90625 -1.28125 C 1.570312 -2.40625 0.90625 -3.953125 0.90625 -5.921875 L 6 -5.921875 C 6 -5.222656 6.210938 -4.675781 6.640625 -4.28125 C 7.066406 -3.894531 7.648438 -3.703125 8.390625 -3.703125 C 9.035156 -3.703125 9.539062 -3.828125 9.90625 -4.078125 C 10.269531 -4.328125 10.453125 -4.679688 10.453125 -5.140625 C 10.453125 -6.148438 9.359375 -6.867188 7.171875 -7.296875 C 3.085938 -8.078125 1.046875 -10 1.046875 -13.0625 C 1.046875 -14.78125 1.664062 -16.140625 2.90625 -17.140625 C 4.144531 -18.140625 5.84375 -18.640625 8 -18.640625 C 9.5 -18.640625 10.800781 -18.390625 11.90625 -17.890625 C 13.007812 -17.390625 13.859375 -16.671875 14.453125 -15.734375 C 15.054688 -14.804688 15.359375 -13.71875 15.359375 -12.46875 L 10.40625 -12.46875 C 10.40625 -13.164062 10.203125 -13.695312 9.796875 -14.0625 C 9.398438 -14.425781 8.835938 -14.609375 8.109375 -14.609375 C 7.503906 -14.609375 7.019531 -14.476562 6.65625 -14.21875 C 6.289062 -13.96875 6.109375 -13.617188 6.109375 -13.171875 C 6.109375 -12.703125 6.347656 -12.3125 6.828125 -12 C 7.316406 -11.6875 8.144531 -11.398438 9.3125 -11.140625 C 11.53125 -10.648438 13.148438 -9.9375 14.171875 -9 C 15.191406 -8.070312 15.703125 -6.851562 15.703125 -5.34375 C 15.703125 -3.550781 15.066406 -2.144531 13.796875 -1.125 C 12.523438 -0.113281 10.75 0.390625 8.46875 0.390625 Z M 8.46875 0.390625 "/></g></g></g><g fill="#000000" fill-opacity="1"><g transform="translate(271.489007, 194.568254)"><g><path d="M 1.9375 0 L 1.9375 -18.25 L 7.203125 -18.25 L 7.203125 0 Z M 1.9375 0 "/></g></g></g><g fill="#000000" fill-opacity="1"><g transform="translate(280.615005, 194.568254)"><g><path d="M 6.28125 0 L 6.28125 -13.375 L 0.734375 -13.375 L 0.734375 -18.25 L 17.078125 -18.25 L 17.078125 -13.375 L 11.53125 -13.375 L 11.53125 0 Z M 6.28125 0 "/></g></g></g><g fill="#000000" fill-opacity="1"><g transform="translate(298.423739, 194.568254)"><g><path d="M 1.9375 0 L 1.9375 -18.25 L 14.453125 -18.25 L 14.453125 -14 L 7.140625 -14 L 7.140625 -11.34375 L 13.75 -11.34375 L 13.75 -7.125 L 7.140625 -7.125 L 7.140625 -4.296875 L 14.734375 -4.296875 L 14.734375 0 Z M 1.9375 0 "/></g></g></g></svg>