<svg xmlns="http://www.w3.org/2000/svg" version="1.1" xmlns:xlink="http://www.w3.org/1999/xlink" width="512" height="512" x="0" y="0" viewBox="0 0 24 24" style="enable-background:new 0 0 512 512" xml:space="preserve" class=""><g><path d="M24 13a11.914 11.914 0 0 1-3.508 8.47 3.037 3.037 0 0 1-4.12.174l-1.026-.887a1 1 0 0 1 1.308-1.514l1.027.888a1.014 1.014 0 0 0 1.395-.075 10.044 10.044 0 0 0-.414-14.513 9.9 9.9 0 0 0-7.823-2.478 9.992 9.992 0 0 0-5.877 17.029 1 1 0 0 0 1.357.038l1.027-.889a1 1 0 0 1 1.308 1.514l-1.026.888a3.016 3.016 0 0 1-4.073-.129A12 12 0 1 1 24 13Zm-6.293-4.293a1 1 0 0 0-1.414-1.414l-3.775 3.775a2 2 0 1 0 1.414 1.414Z" fill="#3e6bff" opacity="1" data-original="#000000" class=""></path></g></svg>